Coordinates
version=1
nRows=14
nColumns=40
inDegrees=yes

Units are S.I. units (second, meters, Newtons, ...)
Angles are in degrees.

endheader
time	pelvis_tilt	pelvis_list	pelvis_rotation	pelvis_tx	pelvis_ty	pelvis_tz	hip_flexion_r	hip_adduction_r	hip_rotation_r	knee_angle_r	knee_angle_r_beta	ankle_angle_r	subtalar_angle_r	mtp_angle_r	hip_flexion_l	hip_adduction_l	hip_rotation_l	knee_angle_l	knee_angle_l_beta	ankle_angle_l	subtalar_angle_l	mtp_angle_l	lumbar_extension	lumbar_bending	lumbar_rotation	arm_flex_r	arm_add_r	arm_rot_r	elbow_flex_r	pro_sup_r	wrist_flex_r	wrist_dev_r	arm_flex_l	arm_add_l	arm_rot_l	elbow_flex_l	pro_sup_l	wrist_flex_l	wrist_dev_l
      0.77000000	     -1.20846990	     -9.51235360	     13.79951712	      0.29625265	      0.91106008	      1.48862088	     31.11875001	      1.54442658	    -16.66524801	    -28.65493780	     -0.50012301	     -6.98506802	     -9.14122382	     -5.75322419	    -14.09258644	     16.85894656	     15.97819678	    -33.26347201	     -0.58055711	    -11.92994988	     -0.07204916	    -11.46499049	      1.12924602	      5.53852100	    -13.39346393	    -15.90475096	    -14.82280097	    -31.39328544	      8.68088363	     89.95437384	      0.00000000	      0.00000000	      7.50959676	     14.94533669	     -1.61935161	     58.95934780	     89.95437384	      0.00000000	      0.00000000
      0.78000000	     -2.02619645	    -10.09804431	     13.87344505	      0.31138229	      0.91139049	      1.48986893	     31.50210417	      2.61718144	    -15.47298370	    -29.38431867	     -0.51285311	     -5.50282749	    -10.42620606	     -4.41533647	    -10.48100662	     17.61978054	     13.81434554	    -37.91461792	     -0.66173492	    -12.25254940	      3.19042997	    -11.93754208	      2.32280370	      5.73358175	    -13.26813779	    -15.42890385	    -14.94226929	    -29.78281022	      8.43307785	     89.95437384	      0.00000000	      0.00000000	      6.94841229	     14.71947210	     -1.04657356	     58.65085596	     89.95437384	      0.00000000	      0.00000000
      0.79000000	     -1.95480359	    -10.67999700	     13.97804690	      0.32681125	      0.91323826	      1.49055706	     30.54244398	      3.85722619	    -14.67518562	    -29.51238748	     -0.51508833	     -3.56314526	    -11.08633835	     -4.31282888	     -8.03881457	     18.42128906	     12.14237733	    -41.97459590	     -0.73259490	    -11.40501655	      5.68121037	    -11.83560481	      2.45720659	      6.22570599	    -12.87809413	    -14.62713755	    -15.03925637	    -29.33278581	      7.99466172	     89.95437384	      0.00000000	      0.00000000	      6.51894629	     14.48866348	     -0.73811874	     58.28160906	     89.95437384	      0.00000000	      0.00000000
      0.80000000	     -2.79051355	    -11.44624149	     14.23536368	      0.34082136	      0.91390979	      1.49120816	     30.60162635	      4.88222510	    -14.35133757	    -29.34012396	     -0.51208177	     -3.09650002	    -12.24754485	     -3.24618656	     -3.85899922	     19.10817327	     10.00458622	    -46.64011765	     -0.81402362	     -9.98781439	      8.10623941	    -11.73943043	      3.61413105	      6.62657566	    -12.81387866	    -14.02982508	    -15.06093906	    -28.34259277	      8.05091906	     89.95437384	      0.00000000	      0.00000000	      6.08273218	     14.13000879	     -0.17907991	     57.52114777	     89.95437384	      0.00000000	      0.00000000
      0.81000000	     -2.86121538	    -11.91095450	     14.41054347	      0.35523882	      0.91630777	      1.49152703	     29.55888419	      5.87639059	    -13.82073946	    -28.86692356	     -0.50382286	     -2.04317018	    -12.91327183	     -2.33894279	     -0.96946989	     19.50434048	      8.50901969	    -50.37519188	     -0.87921296	     -8.48217325	      9.81328099	    -11.67557090	      3.80693037	      6.93131957	    -12.37662107	    -13.20495730	    -15.01435868	    -27.88644641	      8.01637316	     89.95437384	      0.00000000	      0.00000000	      5.72770225	     13.83336105	      0.10910872	     56.72622146	     89.95437384	      0.00000000	      0.00000000
      0.82000000	     -2.44722123	    -11.48598722	     14.17053257	      0.36990125	      0.92027568	      1.49173134	     27.87808311	      6.03996204	    -13.27254892	    -28.69712743	     -0.50085936	     -1.25028734	    -12.58394970	     -2.30075362	      0.63661327	     18.97706326	      7.96232541	    -53.04981210	     -0.92589389	     -7.73469903	     10.14280903	    -11.57947696	      3.08199029	      6.47387477	    -11.24261643	    -12.37109312	    -14.80551382	    -27.46828072	      8.28787736	     89.95437384	      0.00000000	      0.00000000	      5.55209234	     13.60172916	      0.34511534	     55.74732931	     89.95437384	      0.00000000	      0.00000000
      0.83000000	     -3.07698904	    -11.89397877	     14.63828022	      0.38284273	      0.92242698	      1.49080734	     27.42377846	      6.45342413	    -13.28092012	    -28.10436559	     -0.49051371	     -0.31628935	    -12.75592800	     -1.36303205	      4.50311672	     18.59005857	      5.80523721	    -56.40686563	     -0.98448553	     -5.41917953	     13.06930485	    -11.05188275	      3.81476509	      6.63063968	    -11.15673466	    -11.40539879	    -14.78421258	    -27.13194244	      8.37759630	     89.95437384	      0.00000000	      0.00000000	      5.28117687	     13.22280037	      0.63733956	     54.31108075	     89.95437384	      0.00000000	      0.00000000
      0.84000000	     -2.86425271	    -11.48562442	     14.73045489	      0.39637261	      0.92646073	      1.48992667	     25.80092741	      6.38466946	    -13.01273393	    -27.52164624	     -0.48034334	      0.47094370	    -12.35823903	     -1.23455879	      6.57906158	     17.60697764	      4.75244763	    -58.63582040	     -1.02338813	     -3.97039729	     13.86332244	    -10.90899796	      3.28474356	      6.16299937	    -10.30088532	    -10.38714260	    -14.63612478	    -26.84920620	      8.67794615	     89.95437384	      0.00000000	      0.00000000	      5.15857105	     12.95130843	      0.77761816	     52.94389800	     89.95437384	      0.00000000	      0.00000000
      0.85000000	     -2.85501387	    -11.05501796	     15.02192572	      0.40944146	      0.93026393	      1.48840313	     24.26211232	      6.09744519	    -13.13642719	    -26.66304486	     -0.46535792	      1.06501207	    -11.90120595	     -1.11215631	      8.98028582	     16.39501344	      3.65491888	    -60.59375527	     -1.05756054	     -2.57014375	     15.04825755	    -10.63212056	      2.96494224	      5.62570247	     -9.72234530	     -9.38124817	    -14.44230772	    -26.67471889	      9.13894259	     89.95437384	      0.00000000	      0.00000000	      4.97158853	     12.72135347	      0.96133293	     51.51408353	     89.95437384	      0.00000000	      0.00000000
      0.86000000	     -3.02227008	    -10.60821726	     15.51904869	      0.42205881	      0.93373721	      1.48638865	     22.91031225	      5.52548900	    -13.93005498	    -25.78634264	     -0.45005658	      1.52935809	    -11.21033077	     -0.91357206	     11.62832320	     14.97342469	      2.47530028	    -62.28341096	     -1.08705059	     -1.23090998	     16.53171232	     -9.68435042	      2.81894266	      5.00905088	     -9.38669742	     -8.42971282	    -14.26224798	    -26.55646523	      9.88588431	     89.95437384	      0.00000000	      0.00000000	      4.69697574	     12.48678957	      1.27028016	     50.07788346	     89.95437384	      0.00000000	      0.00000000
      0.87000000	     -3.26789363	     -9.80624253	     15.92665788	      0.43451571	      0.93719486	      1.48413564	     21.57254188	      4.51493445	    -14.75305318	    -25.13320463	     -0.43865717	      2.71481089	     -9.50749969	     -0.00818850	     14.12093664	     12.95445718	      1.49103659	    -63.80012190	     -1.11352219	      3.55716315	     16.55720340	      8.97869375	      2.62266810	      3.98863465	     -8.91926922	     -7.36777315	    -14.07156766	    -26.42181878	     10.46341637	     89.95437384	      0.00000000	      0.00000000	      4.43971623	     12.33502732	      1.46633598	     48.59458965	     89.95437384	      0.00000000	      0.00000000
      0.88000000	     -3.37707574	     -9.26749552	     15.96245987	      0.44756489	      0.94061591	      1.48299633	     20.00818893	      4.16748389	    -15.06574786	    -24.04759061	     -0.41970963	      3.18233955	     -9.27734193	     -0.04807141	     16.22275657	     11.81209427	      1.60614834	    -64.50669339	     -1.12585419	      4.20193395	     16.82854240	      8.72795668	      2.36058471	      3.24737911	     -8.09801931	     -6.31612609	    -13.90560960	    -26.16993373	     11.11458605	     89.95437384	      0.00000000	      0.00000000	      3.99607422	     12.34801871	      1.52412261	     47.28492981	     89.95437384	      0.00000000	      0.00000000
      0.89000000	     -3.44971313	     -8.75540293	     16.39549007	      0.46039926	      0.94411993	      1.48094661	     18.23111017	      3.75611454	    -15.50968473	    -22.58629418	     -0.39420520	      3.49103995	     -8.31996584	     -0.10602867	     18.18655001	     10.26734703	      1.01196638	    -64.66988234	     -1.12870237	      5.30909393	     17.66765520	      8.67620456	      2.10522335	      2.58264962	     -7.65223338	     -5.37005538	    -13.75713070	    -25.87048570	     12.04674253	     89.95437384	      0.00000000	      0.00000000	      3.79145050	     12.21881960	      1.71735686	     45.41817547	     89.95437384	      0.00000000	      0.00000000
      0.90000000	     -3.14047413	     -7.98010138	     16.63742598	      0.47415576	      0.94796309	      1.47892872	     15.98956913	      3.06302271	    -16.77351795	    -21.36440698	     -0.37287924	      4.28868612	     -6.12197341	     -0.55020519	     19.36793876	      8.80548868	      1.09051209	    -64.25267857	     -1.12142079	      6.13516642	     18.08001636	      9.77379574	      1.40043059	      1.73866860	     -7.11388018	     -4.35540602	    -13.67939344	    -24.95203063	     12.99010939	     89.95437384	      0.00000000	      0.00000000	      3.28731381	     12.21382329	      2.25435510	     43.91809742	     89.95437384	      0.00000000	      0.00000000
